<?xml version="1.0" encoding="utf-8"?>
<!-- Generator: Adobe Illustrator 20.0.0, SVG Export Plug-In . SVG Version: 6.00 Build 0)  -->
<svg version="1.1" id="Logo" xmlns="http://www.w3.org/2000/svg" xmlns:xlink="http://www.w3.org/1999/xlink" x="0px" y="0px"
	 viewBox="0 0 140 40" style="enable-background:new 0 0 140 40;" xml:space="preserve">
<title>DestinationGoldCoast</title>
<g>
	<path d="M13.1,24.1c0-1.2-0.1-3.2-1.8-3.2c-1.8,0-2,1.9-2,6.9c0,5.2,0.3,6.8,2,6.8c1.5,0,2-1.4,2-4v-0.6h-2.1v-3h6.2v10.2h-3
		l-0.1-1.8h-0.1c-0.7,1.7-2.4,2.2-4.1,2.2c-4.7,0-5.5-3.5-5.5-9.4c0-6.2,0.4-10.2,6.7-10.2c5.8,0,6,4,6,6.1L13.1,24.1L13.1,24.1z"/>
	<path d="M26,37.7c-5.8,0-6.7-3.8-6.7-9.8c0-6,0.8-9.8,6.7-9.8c6.3,0,6.6,4.6,6.6,9.8C32.7,33.1,32.3,37.7,26,37.7z M26,34.7
		c1.8,0,2.1-1.7,2.1-6.8c0-5.2-0.3-6.9-2.1-6.9c-1.8,0-2,1.7-2,6.9C24,33,24.3,34.7,26,34.7z"/>
	<path d="M35,18.4h4.4v15.3h6.5v3.6H35V18.4z"/>
	<path d="M47.3,18.4h6.6c4.4,0,6.3,2.3,6.3,8.9c0,6.9-0.9,10.1-6.7,10.1h-6.2V18.4L47.3,18.4z M51.7,34h1.2c2.1,0,2.8-0.8,2.8-6.5
		c0-4.6-0.4-5.8-2.7-5.8h-1.2L51.7,34L51.7,34z"/>
	<path d="M70.4,24.9c0-2.8-0.3-4-1.8-4c-1.8,0-1.9,1.7-1.9,6.7c0,5.6,0.2,7.1,2,7.1c1.6,0,1.8-1.9,1.8-4.8h4.3v0.7
		c0,4.1-1.1,7.1-6.7,7.1c-5.7,0-6.2-4.3-6.2-10c0-4.8,0.3-9.7,6.6-9.7c3.9,0,6.1,1.7,6.1,6.2v0.8L70.4,24.9L70.4,24.9L70.4,24.9z"/>
	<path d="M82.9,37.7c-5.8,0-6.6-3.8-6.6-9.8c0-6,0.8-9.8,6.6-9.8c6.3,0,6.7,4.6,6.7,9.8C89.6,33.1,89.3,37.7,82.9,37.7z M82.9,34.7
		c1.8,0,2.1-1.7,2.1-6.8c0-5.2-0.3-6.9-2.1-6.9c-1.8,0-2,1.7-2,6.9C80.9,33,81.2,34.7,82.9,34.7z"/>
	<path d="M95,18.4h5.6l4.7,18.9h-4.6l-0.7-3.6h-4.5l-0.7,3.6h-4.6L95,18.4z M97.7,21.8L97.7,21.8l-1.6,8.4h3.2L97.7,21.8z"/>
	<path d="M110.4,31.5v0.7c0,1.4,0.4,2.5,1.9,2.5c1.6,0,2-1.2,2-2.2c0-4.1-8.1-1.8-8.1-8.9c0-3,1.6-5.6,6.2-5.6
		c4.5,0,6.1,2.3,6.1,5.2v0.4h-4.3c0-0.9-0.1-1.6-0.4-2c-0.3-0.4-0.7-0.7-1.3-0.7c-1.1,0-1.8,0.7-1.8,2c0,4,8.1,2,8.1,8.7
		c0,4.3-2.4,6-6.5,6c-3.2,0-6.2-1-6.2-4.9v-1.2L110.4,31.5L110.4,31.5z"/>
	<path d="M123.7,22h-4v-3.6h12.4V22h-4v15.3h-4.4L123.7,22L123.7,22L123.7,22z"/>
	<path d="M137.4,34.7c0,1.4-1.2,2.6-2.6,2.6c-1.4,0-2.6-1.2-2.6-2.6s1.2-2.6,2.6-2.6C136.2,32.1,137.4,33.3,137.4,34.7z"/>
	<g>
		<path d="M134.9,18.6h-0.6v1.8H134v-1.8h-0.6v-0.3h1.6V18.6L134.9,18.6z M137.4,20.4H137v-1.7h0l-0.7,1.7h-0.2l-0.7-1.7h0v1.7h-0.3
			v-2h0.5l0.6,1.6l0.6-1.6h0.5V20.4z"/>
	</g>
</g>
<g>
	<path d="M50.3,2.5h3.4c2.8,0,3.4,1.9,3.4,4.9c0,3.6-0.8,5.2-3.5,5.2h-3.2L50.3,2.5L50.3,2.5z M52.4,11.2h0.9c1.4,0,1.7-0.9,1.7-3.7
		C55,5.2,54.8,4,53.2,4h-0.9L52.4,11.2L52.4,11.2z"/>
	<path d="M64.7,2.5v1.7H61v2.4h3.4v1.7H61V11h3.8v1.7H59V2.5H64.7z"/>
	<path d="M68.3,9.5v0.3c0,1,0.3,1.6,1.4,1.6c0.6,0,1.2-0.4,1.2-1.3c0-0.9-0.5-1.3-1.8-1.7c-1.8-0.6-2.7-1.4-2.7-3.1c0-2,1.2-3,3.1-3
		c1.8,0,3.1,0.8,3.1,2.7v0.3h-1.9c0-1-0.3-1.5-1.1-1.5c-0.9,0-1.2,0.6-1.2,1.2c0,0.6,0.2,1,1.1,1.4l1.6,0.7C72.6,7.7,73,8.5,73,9.8
		c0,2.1-1.3,3.1-3.5,3.1c-2.3,0-3.2-1.1-3.2-3V9.5L68.3,9.5L68.3,9.5L68.3,9.5L68.3,9.5z"/>
	<path d="M80.7,2.5v1.7h-2.2v8.5h-2.1V4.2h-2.2V2.5H80.7z"/>
	<path d="M82.4,12.7V2.5h2v10.2L82.4,12.7L82.4,12.7z"/>
	<path d="M89.2,2.5l2.5,7h0v-7h1.9v10.2h-2.3l-2.5-7.1h0v7.1h-1.9V2.5H89.2z"/>
	<path d="M98.1,2.5h2.5l2.7,10.2h-2.1l-0.5-2.1H98l-0.5,2.1h-2.1L98.1,2.5z M98.3,8.8h2l-1-4.6h0L98.3,8.8z"/>
	<path d="M110.1,2.5v1.7h-2.2v8.5h-2.1V4.2h-2.2V2.5H110.1z"/>
	<path d="M112.1,12.7V2.5h2.1v10.2L112.1,12.7L112.1,12.7z"/>
	<path d="M119.8,2.3c3.1,0,3.5,2.2,3.5,5.3c0,3.1-0.4,5.3-3.5,5.3c-3.1,0-3.4-2.2-3.4-5.3C116.3,4.5,116.7,2.3,119.8,2.3z
		 M119.8,11.4c1.2,0,1.4-1,1.4-3.8c0-2.7-0.2-3.8-1.4-3.8c-1.2,0-1.4,1.1-1.4,3.8C118.4,10.3,118.6,11.4,119.8,11.4z"/>
	<path d="M127.8,2.5l2.5,7h0v-7h1.9v10.2h-2.3l-2.5-7.1h0v7.1h-1.9V2.5H127.8z"/>
</g>
<g>
	<path d="M5.4,2.4h0.9l1.8,9h0l1.7-9h1.1l1.7,9h0l1.8-9h0.9l-2.1,10.2h-1.1l-1.7-9h0l-1.7,9H7.5L5.4,2.4z"/>
	<path d="M16,2.4h5.1v0.8h-4.1v3.7h3.8v0.8h-3.9v4.2h4.3v0.8H16V2.4z"/>
	<path d="M28.3,2.4h1.1l3,10.2h-1l-0.8-3H27l-0.8,3h-1L28.3,2.4z M30.4,8.9l-1.6-5.7h0l-1.6,5.7H30.4z"/>
	<path d="M33.3,2.4h3C38,2.4,39,3.4,39,5c0,1.2-0.5,2.3-1.8,2.6v0c1.3,0.1,1.7,0.8,1.7,2.4l0,1.1c0,0.6,0.1,1.1,0.4,1.5h-1.1
		C38,12.2,38,11.7,38,11.2l0-0.9c-0.1-1.8-0.4-2.4-2-2.4h-1.7v4.6h-0.9L33.3,2.4L33.3,2.4z M34.2,7.2h1.6c1.4,0,2.3-0.7,2.3-2
		c0-1.2-0.5-2-2.2-2h-1.7V7.2z"/>
	<path d="M40.5,2.4h5.1v0.8h-4.1v3.7h3.9v0.8h-3.9v4.2h4.3v0.8h-5.2L40.5,2.4L40.5,2.4L40.5,2.4z"/>
</g>
</svg>
